<mxfile host="drawio-plugin" modified="2023-02-19T20:22:09.313Z" agent="5.0 (Macintosh; Intel Mac OS X 10_15_7) AppleWebKit/537.36 (KHTML, like Gecko) Chrome/104.0.5112.102 Safari/537.36" etag="PfbvOC9sh-rMGaf6DXQ8" version="20.5.3" type="embed"><diagram id="rP6StoWKg18THfLRQldT" name="Seite-1"><mxGraphModel dx="1474" dy="629" grid="1" gridSize="10" guides="1" tooltips="1" connect="1" arrows="1" fold="1" page="1" pageScale="1" pageWidth="827" pageHeight="1169" math="0" shadow="0"><root><mxCell id="0"/><mxCell id="1" parent="0"/><mxCell id="KoQxPKDXG5o8-Tq4nOLA-1" value="leon: Player" style="swimlane;fontStyle=5;childLayout=stackLayout;horizontal=1;startSize=26;fillColor=none;horizontalStack=0;resizeParent=1;resizeParentMax=0;resizeLast=0;collapsible=1;marginBottom=0;" parent="1" vertex="1"><mxGeometry x="500" y="140" width="140" height="52" as="geometry"/></mxCell><mxCell id="KoQxPKDXG5o8-Tq4nOLA-2" value="name = &quot;Leon&quot;" style="text;strokeColor=none;fillColor=none;align=left;verticalAlign=top;spacingLeft=4;spacingRight=4;overflow=hidden;rotatable=0;points=[[0,0.5],[1,0.5]];portConstraint=eastwest;" parent="KoQxPKDXG5o8-Tq4nOLA-1" vertex="1"><mxGeometry y="26" width="140" height="26" as="geometry"/></mxCell><mxCell id="KoQxPKDXG5o8-Tq4nOLA-5" value="game: Game" style="swimlane;fontStyle=5;childLayout=stackLayout;horizontal=1;startSize=26;fillColor=none;horizontalStack=0;resizeParent=1;resizeParentMax=0;resizeLast=0;collapsible=1;marginBottom=0;" parent="1" vertex="1"><mxGeometry x="-100" y="360" width="140" height="40" as="geometry"/></mxCell><mxCell id="KoQxPKDXG5o8-Tq4nOLA-9" value="lukas: Bot" style="swimlane;fontStyle=5;childLayout=stackLayout;horizontal=1;startSize=26;fillColor=none;horizontalStack=0;resizeParent=1;resizeParentMax=0;resizeLast=0;collapsible=1;marginBottom=0;" parent="1" vertex="1"><mxGeometry x="500" y="450" width="140" height="52" as="geometry"/></mxCell><mxCell id="KoQxPKDXG5o8-Tq4nOLA-10" value="name = &quot;Lukas&quot;" style="text;strokeColor=none;fillColor=none;align=left;verticalAlign=top;spacingLeft=4;spacingRight=4;overflow=hidden;rotatable=0;points=[[0,0.5],[1,0.5]];portConstraint=eastwest;" parent="KoQxPKDXG5o8-Tq4nOLA-9" vertex="1"><mxGeometry y="26" width="140" height="26" as="geometry"/></mxCell><mxCell id="KoQxPKDXG5o8-Tq4nOLA-26" value="card2: Card" style="swimlane;fontStyle=5;childLayout=stackLayout;horizontal=1;startSize=26;fillColor=none;horizontalStack=0;resizeParent=1;resizeParentMax=0;resizeLast=0;collapsible=1;marginBottom=0;" parent="1" vertex="1"><mxGeometry x="310" y="270" width="80" height="52" as="geometry"/></mxCell><mxCell id="KoQxPKDXG5o8-Tq4nOLA-27" value="value = 2" style="text;strokeColor=none;fillColor=none;align=left;verticalAlign=top;spacingLeft=4;spacingRight=4;overflow=hidden;rotatable=0;points=[[0,0.5],[1,0.5]];portConstraint=eastwest;" parent="KoQxPKDXG5o8-Tq4nOLA-26" vertex="1"><mxGeometry y="26" width="80" height="26" as="geometry"/></mxCell><mxCell id="KoQxPKDXG5o8-Tq4nOLA-28" value="blue: CardColor" style="swimlane;fontStyle=5;childLayout=stackLayout;horizontal=1;startSize=26;fillColor=none;horizontalStack=0;resizeParent=1;resizeParentMax=0;resizeLast=0;collapsible=1;marginBottom=0;" parent="1" vertex="1"><mxGeometry x="300" y="360" width="100" height="30" as="geometry"/></mxCell><mxCell id="KoQxPKDXG5o8-Tq4nOLA-29" value="color" style="endArrow=none;html=1;rounded=0;entryX=0.488;entryY=1.038;entryDx=0;entryDy=0;entryPerimeter=0;" parent="1" source="KoQxPKDXG5o8-Tq4nOLA-28" target="KoQxPKDXG5o8-Tq4nOLA-27" edge="1"><mxGeometry x="-0.4765" y="-21" width="50" height="50" relative="1" as="geometry"><mxPoint x="580" y="400" as="sourcePoint"/><mxPoint x="630" y="350" as="targetPoint"/><mxPoint as="offset"/></mxGeometry></mxCell><mxCell id="KoQxPKDXG5o8-Tq4nOLA-30" value="card3: Card" style="swimlane;fontStyle=5;childLayout=stackLayout;horizontal=1;startSize=26;fillColor=none;horizontalStack=0;resizeParent=1;resizeParentMax=0;resizeLast=0;collapsible=1;marginBottom=0;" parent="1" vertex="1"><mxGeometry x="420" y="270" width="80" height="52" as="geometry"/></mxCell><mxCell id="KoQxPKDXG5o8-Tq4nOLA-31" value="value = 9" style="text;strokeColor=none;fillColor=none;align=left;verticalAlign=top;spacingLeft=4;spacingRight=4;overflow=hidden;rotatable=0;points=[[0,0.5],[1,0.5]];portConstraint=eastwest;" parent="KoQxPKDXG5o8-Tq4nOLA-30" vertex="1"><mxGeometry y="26" width="80" height="26" as="geometry"/></mxCell><mxCell id="KoQxPKDXG5o8-Tq4nOLA-32" value="blue: CardColor" style="swimlane;fontStyle=5;childLayout=stackLayout;horizontal=1;startSize=26;fillColor=none;horizontalStack=0;resizeParent=1;resizeParentMax=0;resizeLast=0;collapsible=1;marginBottom=0;" parent="1" vertex="1"><mxGeometry x="410" y="360" width="100" height="30" as="geometry"/></mxCell><mxCell id="KoQxPKDXG5o8-Tq4nOLA-33" value="color" style="endArrow=none;html=1;rounded=0;entryX=0.488;entryY=1.038;entryDx=0;entryDy=0;entryPerimeter=0;" parent="1" source="KoQxPKDXG5o8-Tq4nOLA-32" target="KoQxPKDXG5o8-Tq4nOLA-31" edge="1"><mxGeometry x="-0.4765" y="-21" width="50" height="50" relative="1" as="geometry"><mxPoint x="690" y="400" as="sourcePoint"/><mxPoint x="740" y="350" as="targetPoint"/><mxPoint as="offset"/></mxGeometry></mxCell><mxCell id="KoQxPKDXG5o8-Tq4nOLA-34" value="card4: Card" style="swimlane;fontStyle=5;childLayout=stackLayout;horizontal=1;startSize=26;fillColor=none;horizontalStack=0;resizeParent=1;resizeParentMax=0;resizeLast=0;collapsible=1;marginBottom=0;" parent="1" vertex="1"><mxGeometry x="530" y="270" width="80" height="52" as="geometry"/></mxCell><mxCell id="KoQxPKDXG5o8-Tq4nOLA-35" value="value = 0" style="text;strokeColor=none;fillColor=none;align=left;verticalAlign=top;spacingLeft=4;spacingRight=4;overflow=hidden;rotatable=0;points=[[0,0.5],[1,0.5]];portConstraint=eastwest;" parent="KoQxPKDXG5o8-Tq4nOLA-34" vertex="1"><mxGeometry y="26" width="80" height="26" as="geometry"/></mxCell><mxCell id="KoQxPKDXG5o8-Tq4nOLA-36" value="yellow: CardColor" style="swimlane;fontStyle=5;childLayout=stackLayout;horizontal=1;startSize=26;fillColor=none;horizontalStack=0;resizeParent=1;resizeParentMax=0;resizeLast=0;collapsible=1;marginBottom=0;" parent="1" vertex="1"><mxGeometry x="520" y="360" width="100" height="30" as="geometry"/></mxCell><mxCell id="KoQxPKDXG5o8-Tq4nOLA-37" value="color" style="endArrow=none;html=1;rounded=0;entryX=0.488;entryY=1.038;entryDx=0;entryDy=0;entryPerimeter=0;" parent="1" source="KoQxPKDXG5o8-Tq4nOLA-36" target="KoQxPKDXG5o8-Tq4nOLA-35" edge="1"><mxGeometry x="-0.4765" y="-21" width="50" height="50" relative="1" as="geometry"><mxPoint x="800" y="400" as="sourcePoint"/><mxPoint x="850" y="350" as="targetPoint"/><mxPoint as="offset"/></mxGeometry></mxCell><mxCell id="KoQxPKDXG5o8-Tq4nOLA-38" value="card5: Card" style="swimlane;fontStyle=5;childLayout=stackLayout;horizontal=1;startSize=26;fillColor=none;horizontalStack=0;resizeParent=1;resizeParentMax=0;resizeLast=0;collapsible=1;marginBottom=0;" parent="1" vertex="1"><mxGeometry x="640" y="270" width="80" height="52" as="geometry"/></mxCell><mxCell id="KoQxPKDXG5o8-Tq4nOLA-39" value="value = 3" style="text;strokeColor=none;fillColor=none;align=left;verticalAlign=top;spacingLeft=4;spacingRight=4;overflow=hidden;rotatable=0;points=[[0,0.5],[1,0.5]];portConstraint=eastwest;" parent="KoQxPKDXG5o8-Tq4nOLA-38" vertex="1"><mxGeometry y="26" width="80" height="26" as="geometry"/></mxCell><mxCell id="KoQxPKDXG5o8-Tq4nOLA-40" value="green: CardColor" style="swimlane;fontStyle=5;childLayout=stackLayout;horizontal=1;startSize=26;fillColor=none;horizontalStack=0;resizeParent=1;resizeParentMax=0;resizeLast=0;collapsible=1;marginBottom=0;" parent="1" vertex="1"><mxGeometry x="630" y="360" width="100" height="30" as="geometry"/></mxCell><mxCell id="KoQxPKDXG5o8-Tq4nOLA-41" value="color" style="endArrow=none;html=1;rounded=0;entryX=0.488;entryY=1.038;entryDx=0;entryDy=0;entryPerimeter=0;" parent="1" source="KoQxPKDXG5o8-Tq4nOLA-40" target="KoQxPKDXG5o8-Tq4nOLA-39" edge="1"><mxGeometry x="-0.4765" y="-21" width="50" height="50" relative="1" as="geometry"><mxPoint x="910" y="400" as="sourcePoint"/><mxPoint x="960" y="350" as="targetPoint"/><mxPoint as="offset"/></mxGeometry></mxCell><mxCell id="KoQxPKDXG5o8-Tq4nOLA-42" value="card6: Card" style="swimlane;fontStyle=5;childLayout=stackLayout;horizontal=1;startSize=26;fillColor=none;horizontalStack=0;resizeParent=1;resizeParentMax=0;resizeLast=0;collapsible=1;marginBottom=0;" parent="1" vertex="1"><mxGeometry x="750" y="270" width="80" height="52" as="geometry"/></mxCell><mxCell id="KoQxPKDXG5o8-Tq4nOLA-43" value="value = 6" style="text;strokeColor=none;fillColor=none;align=left;verticalAlign=top;spacingLeft=4;spacingRight=4;overflow=hidden;rotatable=0;points=[[0,0.5],[1,0.5]];portConstraint=eastwest;" parent="KoQxPKDXG5o8-Tq4nOLA-42" vertex="1"><mxGeometry y="26" width="80" height="26" as="geometry"/></mxCell><mxCell id="KoQxPKDXG5o8-Tq4nOLA-44" value="green: CardColor" style="swimlane;fontStyle=5;childLayout=stackLayout;horizontal=1;startSize=26;fillColor=none;horizontalStack=0;resizeParent=1;resizeParentMax=0;resizeLast=0;collapsible=1;marginBottom=0;" parent="1" vertex="1"><mxGeometry x="740" y="360" width="100" height="30" as="geometry"/></mxCell><mxCell id="KoQxPKDXG5o8-Tq4nOLA-45" value="color" style="endArrow=none;html=1;rounded=0;entryX=0.488;entryY=1.038;entryDx=0;entryDy=0;entryPerimeter=0;" parent="1" source="KoQxPKDXG5o8-Tq4nOLA-44" target="KoQxPKDXG5o8-Tq4nOLA-43" edge="1"><mxGeometry x="-0.4765" y="-21" width="50" height="50" relative="1" as="geometry"><mxPoint x="1020" y="400" as="sourcePoint"/><mxPoint x="1070" y="350" as="targetPoint"/><mxPoint as="offset"/></mxGeometry></mxCell><mxCell id="KoQxPKDXG5o8-Tq4nOLA-53" value="" style="endArrow=none;html=1;rounded=0;exitX=0.5;exitY=0;exitDx=0;exitDy=0;" parent="1" source="KoQxPKDXG5o8-Tq4nOLA-26" target="KoQxPKDXG5o8-Tq4nOLA-2" edge="1"><mxGeometry width="50" height="50" relative="1" as="geometry"><mxPoint x="250" y="280" as="sourcePoint"/><mxPoint x="468.2716049382716" y="212" as="targetPoint"/></mxGeometry></mxCell><mxCell id="KoQxPKDXG5o8-Tq4nOLA-54" value="cards" style="edgeLabel;html=1;align=center;verticalAlign=middle;resizable=0;points=[];" parent="KoQxPKDXG5o8-Tq4nOLA-53" vertex="1" connectable="0"><mxGeometry x="-0.6237" relative="1" as="geometry"><mxPoint x="-41" as="offset"/></mxGeometry></mxCell><mxCell id="KoQxPKDXG5o8-Tq4nOLA-93" value="cards" style="edgeLabel;html=1;align=center;verticalAlign=middle;resizable=0;points=[];" parent="KoQxPKDXG5o8-Tq4nOLA-53" vertex="1" connectable="0"><mxGeometry x="-0.6237" relative="1" as="geometry"><mxPoint x="-41" y="325" as="offset"/></mxGeometry></mxCell><mxCell id="KoQxPKDXG5o8-Tq4nOLA-55" value="" style="endArrow=none;html=1;rounded=0;exitX=0.5;exitY=0;exitDx=0;exitDy=0;" parent="1" source="KoQxPKDXG5o8-Tq4nOLA-30" target="KoQxPKDXG5o8-Tq4nOLA-2" edge="1"><mxGeometry width="50" height="50" relative="1" as="geometry"><mxPoint x="360" y="280" as="sourcePoint"/><mxPoint x="485.92592592592587" y="212" as="targetPoint"/></mxGeometry></mxCell><mxCell id="KoQxPKDXG5o8-Tq4nOLA-56" value="cards" style="edgeLabel;html=1;align=center;verticalAlign=middle;resizable=0;points=[];" parent="KoQxPKDXG5o8-Tq4nOLA-55" vertex="1" connectable="0"><mxGeometry x="-0.6237" relative="1" as="geometry"><mxPoint x="-41" as="offset"/></mxGeometry></mxCell><mxCell id="KoQxPKDXG5o8-Tq4nOLA-94" value="cards" style="edgeLabel;html=1;align=center;verticalAlign=middle;resizable=0;points=[];" parent="KoQxPKDXG5o8-Tq4nOLA-55" vertex="1" connectable="0"><mxGeometry x="-0.6237" relative="1" as="geometry"><mxPoint x="-41" y="325" as="offset"/></mxGeometry></mxCell><mxCell id="KoQxPKDXG5o8-Tq4nOLA-57" value="" style="endArrow=none;html=1;rounded=0;exitX=0.5;exitY=0;exitDx=0;exitDy=0;" parent="1" source="KoQxPKDXG5o8-Tq4nOLA-34" target="KoQxPKDXG5o8-Tq4nOLA-2" edge="1"><mxGeometry width="50" height="50" relative="1" as="geometry"><mxPoint x="568.77" y="270" as="sourcePoint"/><mxPoint x="510.0045679012344" y="202" as="targetPoint"/></mxGeometry></mxCell><mxCell id="KoQxPKDXG5o8-Tq4nOLA-58" value="cards" style="edgeLabel;html=1;align=center;verticalAlign=middle;resizable=0;points=[];" parent="KoQxPKDXG5o8-Tq4nOLA-57" vertex="1" connectable="0"><mxGeometry x="-0.6237" relative="1" as="geometry"><mxPoint x="21" as="offset"/></mxGeometry></mxCell><mxCell id="KoQxPKDXG5o8-Tq4nOLA-95" value="cards" style="edgeLabel;html=1;align=center;verticalAlign=middle;resizable=0;points=[];" parent="KoQxPKDXG5o8-Tq4nOLA-57" vertex="1" connectable="0"><mxGeometry x="-0.6237" relative="1" as="geometry"><mxPoint x="21" y="325" as="offset"/></mxGeometry></mxCell><mxCell id="KoQxPKDXG5o8-Tq4nOLA-59" value="" style="endArrow=none;html=1;rounded=0;exitX=0.5;exitY=0;exitDx=0;exitDy=0;" parent="1" source="KoQxPKDXG5o8-Tq4nOLA-38" target="KoQxPKDXG5o8-Tq4nOLA-2" edge="1"><mxGeometry width="50" height="50" relative="1" as="geometry"><mxPoint x="580" y="280" as="sourcePoint"/><mxPoint x="521.2345679012344" y="212" as="targetPoint"/></mxGeometry></mxCell><mxCell id="KoQxPKDXG5o8-Tq4nOLA-60" value="cards" style="edgeLabel;html=1;align=center;verticalAlign=middle;resizable=0;points=[];" parent="KoQxPKDXG5o8-Tq4nOLA-59" vertex="1" connectable="0"><mxGeometry x="-0.6237" relative="1" as="geometry"><mxPoint x="21" as="offset"/></mxGeometry></mxCell><mxCell id="KoQxPKDXG5o8-Tq4nOLA-96" value="cards" style="edgeLabel;html=1;align=center;verticalAlign=middle;resizable=0;points=[];" parent="KoQxPKDXG5o8-Tq4nOLA-59" vertex="1" connectable="0"><mxGeometry x="-0.6237" relative="1" as="geometry"><mxPoint x="21" y="325" as="offset"/></mxGeometry></mxCell><mxCell id="KoQxPKDXG5o8-Tq4nOLA-61" value="" style="endArrow=none;html=1;rounded=0;exitX=0.5;exitY=0;exitDx=0;exitDy=0;" parent="1" source="KoQxPKDXG5o8-Tq4nOLA-42" target="KoQxPKDXG5o8-Tq4nOLA-2" edge="1"><mxGeometry width="50" height="50" relative="1" as="geometry"><mxPoint x="690" y="280" as="sourcePoint"/><mxPoint x="538.8888888888889" y="212" as="targetPoint"/></mxGeometry></mxCell><mxCell id="KoQxPKDXG5o8-Tq4nOLA-62" value="cards" style="edgeLabel;html=1;align=center;verticalAlign=middle;resizable=0;points=[];" parent="KoQxPKDXG5o8-Tq4nOLA-61" vertex="1" connectable="0"><mxGeometry x="-0.6237" relative="1" as="geometry"><mxPoint x="36" as="offset"/></mxGeometry></mxCell><mxCell id="KoQxPKDXG5o8-Tq4nOLA-97" value="cards" style="edgeLabel;html=1;align=center;verticalAlign=middle;resizable=0;points=[];" parent="KoQxPKDXG5o8-Tq4nOLA-61" vertex="1" connectable="0"><mxGeometry x="-0.6237" relative="1" as="geometry"><mxPoint x="46" y="325" as="offset"/></mxGeometry></mxCell><mxCell id="2" value="cards" style="edgeLabel;html=1;align=center;verticalAlign=middle;resizable=0;points=[];" vertex="1" connectable="0" parent="KoQxPKDXG5o8-Tq4nOLA-61"><mxGeometry x="-0.6237" relative="1" as="geometry"><mxPoint x="145" y="330" as="offset"/></mxGeometry></mxCell><mxCell id="KoQxPKDXG5o8-Tq4nOLA-68" value="card2: Card" style="swimlane;fontStyle=5;childLayout=stackLayout;horizontal=1;startSize=26;fillColor=none;horizontalStack=0;resizeParent=1;resizeParentMax=0;resizeLast=0;collapsible=1;marginBottom=0;" parent="1" vertex="1"><mxGeometry x="310" y="594.87" width="80" height="52" as="geometry"/></mxCell><mxCell id="KoQxPKDXG5o8-Tq4nOLA-69" value="value = 7" style="text;strokeColor=none;fillColor=none;align=left;verticalAlign=top;spacingLeft=4;spacingRight=4;overflow=hidden;rotatable=0;points=[[0,0.5],[1,0.5]];portConstraint=eastwest;" parent="KoQxPKDXG5o8-Tq4nOLA-68" vertex="1"><mxGeometry y="26" width="80" height="26" as="geometry"/></mxCell><mxCell id="KoQxPKDXG5o8-Tq4nOLA-70" value="red: CardColor" style="swimlane;fontStyle=5;childLayout=stackLayout;horizontal=1;startSize=26;fillColor=none;horizontalStack=0;resizeParent=1;resizeParentMax=0;resizeLast=0;collapsible=1;marginBottom=0;" parent="1" vertex="1"><mxGeometry x="300" y="684.87" width="100" height="30" as="geometry"/></mxCell><mxCell id="KoQxPKDXG5o8-Tq4nOLA-71" value="color" style="endArrow=none;html=1;rounded=0;entryX=0.488;entryY=1.038;entryDx=0;entryDy=0;entryPerimeter=0;" parent="1" source="KoQxPKDXG5o8-Tq4nOLA-70" target="KoQxPKDXG5o8-Tq4nOLA-69" edge="1"><mxGeometry x="-0.4765" y="-21" width="50" height="50" relative="1" as="geometry"><mxPoint x="580" y="724.87" as="sourcePoint"/><mxPoint x="630" y="674.87" as="targetPoint"/><mxPoint as="offset"/></mxGeometry></mxCell><mxCell id="KoQxPKDXG5o8-Tq4nOLA-72" value="card3: Card" style="swimlane;fontStyle=5;childLayout=stackLayout;horizontal=1;startSize=26;fillColor=none;horizontalStack=0;resizeParent=1;resizeParentMax=0;resizeLast=0;collapsible=1;marginBottom=0;" parent="1" vertex="1"><mxGeometry x="420" y="594.87" width="80" height="52" as="geometry"/></mxCell><mxCell id="KoQxPKDXG5o8-Tq4nOLA-73" value="value = 3" style="text;strokeColor=none;fillColor=none;align=left;verticalAlign=top;spacingLeft=4;spacingRight=4;overflow=hidden;rotatable=0;points=[[0,0.5],[1,0.5]];portConstraint=eastwest;" parent="KoQxPKDXG5o8-Tq4nOLA-72" vertex="1"><mxGeometry y="26" width="80" height="26" as="geometry"/></mxCell><mxCell id="KoQxPKDXG5o8-Tq4nOLA-74" value="blue: CardColor" style="swimlane;fontStyle=5;childLayout=stackLayout;horizontal=1;startSize=26;fillColor=none;horizontalStack=0;resizeParent=1;resizeParentMax=0;resizeLast=0;collapsible=1;marginBottom=0;" parent="1" vertex="1"><mxGeometry x="410" y="684.87" width="100" height="30" as="geometry"/></mxCell><mxCell id="KoQxPKDXG5o8-Tq4nOLA-75" value="color" style="endArrow=none;html=1;rounded=0;entryX=0.488;entryY=1.038;entryDx=0;entryDy=0;entryPerimeter=0;" parent="1" source="KoQxPKDXG5o8-Tq4nOLA-74" target="KoQxPKDXG5o8-Tq4nOLA-73" edge="1"><mxGeometry x="-0.4765" y="-21" width="50" height="50" relative="1" as="geometry"><mxPoint x="690" y="724.87" as="sourcePoint"/><mxPoint x="740" y="674.87" as="targetPoint"/><mxPoint as="offset"/></mxGeometry></mxCell><mxCell id="KoQxPKDXG5o8-Tq4nOLA-76" value="card4: Card" style="swimlane;fontStyle=5;childLayout=stackLayout;horizontal=1;startSize=26;fillColor=none;horizontalStack=0;resizeParent=1;resizeParentMax=0;resizeLast=0;collapsible=1;marginBottom=0;" parent="1" vertex="1"><mxGeometry x="530" y="594.87" width="80" height="52" as="geometry"/></mxCell><mxCell id="KoQxPKDXG5o8-Tq4nOLA-77" value="value = 8" style="text;strokeColor=none;fillColor=none;align=left;verticalAlign=top;spacingLeft=4;spacingRight=4;overflow=hidden;rotatable=0;points=[[0,0.5],[1,0.5]];portConstraint=eastwest;" parent="KoQxPKDXG5o8-Tq4nOLA-76" vertex="1"><mxGeometry y="26" width="80" height="26" as="geometry"/></mxCell><mxCell id="KoQxPKDXG5o8-Tq4nOLA-78" value="red: CardColor" style="swimlane;fontStyle=5;childLayout=stackLayout;horizontal=1;startSize=26;fillColor=none;horizontalStack=0;resizeParent=1;resizeParentMax=0;resizeLast=0;collapsible=1;marginBottom=0;" parent="1" vertex="1"><mxGeometry x="520" y="684.87" width="100" height="30" as="geometry"/></mxCell><mxCell id="KoQxPKDXG5o8-Tq4nOLA-79" value="color" style="endArrow=none;html=1;rounded=0;entryX=0.488;entryY=1.038;entryDx=0;entryDy=0;entryPerimeter=0;" parent="1" source="KoQxPKDXG5o8-Tq4nOLA-78" target="KoQxPKDXG5o8-Tq4nOLA-77" edge="1"><mxGeometry x="-0.4765" y="-21" width="50" height="50" relative="1" as="geometry"><mxPoint x="800" y="724.87" as="sourcePoint"/><mxPoint x="850" y="674.87" as="targetPoint"/><mxPoint as="offset"/></mxGeometry></mxCell><mxCell id="KoQxPKDXG5o8-Tq4nOLA-80" value="card5: Card" style="swimlane;fontStyle=5;childLayout=stackLayout;horizontal=1;startSize=26;fillColor=none;horizontalStack=0;resizeParent=1;resizeParentMax=0;resizeLast=0;collapsible=1;marginBottom=0;" parent="1" vertex="1"><mxGeometry x="640" y="594.87" width="80" height="52" as="geometry"/></mxCell><mxCell id="KoQxPKDXG5o8-Tq4nOLA-81" value="value = 9" style="text;strokeColor=none;fillColor=none;align=left;verticalAlign=top;spacingLeft=4;spacingRight=4;overflow=hidden;rotatable=0;points=[[0,0.5],[1,0.5]];portConstraint=eastwest;" parent="KoQxPKDXG5o8-Tq4nOLA-80" vertex="1"><mxGeometry y="26" width="80" height="26" as="geometry"/></mxCell><mxCell id="KoQxPKDXG5o8-Tq4nOLA-82" value="green: CardColor" style="swimlane;fontStyle=5;childLayout=stackLayout;horizontal=1;startSize=26;fillColor=none;horizontalStack=0;resizeParent=1;resizeParentMax=0;resizeLast=0;collapsible=1;marginBottom=0;" parent="1" vertex="1"><mxGeometry x="630" y="684.87" width="100" height="30" as="geometry"/></mxCell><mxCell id="KoQxPKDXG5o8-Tq4nOLA-83" value="color" style="endArrow=none;html=1;rounded=0;entryX=0.488;entryY=1.038;entryDx=0;entryDy=0;entryPerimeter=0;" parent="1" source="KoQxPKDXG5o8-Tq4nOLA-82" target="KoQxPKDXG5o8-Tq4nOLA-81" edge="1"><mxGeometry x="-0.4765" y="-21" width="50" height="50" relative="1" as="geometry"><mxPoint x="910" y="724.87" as="sourcePoint"/><mxPoint x="960" y="674.87" as="targetPoint"/><mxPoint as="offset"/></mxGeometry></mxCell><mxCell id="KoQxPKDXG5o8-Tq4nOLA-84" value="card6: Card" style="swimlane;fontStyle=5;childLayout=stackLayout;horizontal=1;startSize=26;fillColor=none;horizontalStack=0;resizeParent=1;resizeParentMax=0;resizeLast=0;collapsible=1;marginBottom=0;" parent="1" vertex="1"><mxGeometry x="750" y="594.87" width="80" height="52" as="geometry"/></mxCell><mxCell id="KoQxPKDXG5o8-Tq4nOLA-85" value="value = 2" style="text;strokeColor=none;fillColor=none;align=left;verticalAlign=top;spacingLeft=4;spacingRight=4;overflow=hidden;rotatable=0;points=[[0,0.5],[1,0.5]];portConstraint=eastwest;" parent="KoQxPKDXG5o8-Tq4nOLA-84" vertex="1"><mxGeometry y="26" width="80" height="26" as="geometry"/></mxCell><mxCell id="KoQxPKDXG5o8-Tq4nOLA-86" value="green: CardColor" style="swimlane;fontStyle=5;childLayout=stackLayout;horizontal=1;startSize=26;fillColor=none;horizontalStack=0;resizeParent=1;resizeParentMax=0;resizeLast=0;collapsible=1;marginBottom=0;" parent="1" vertex="1"><mxGeometry x="740" y="684.87" width="100" height="30" as="geometry"/></mxCell><mxCell id="KoQxPKDXG5o8-Tq4nOLA-87" value="color" style="endArrow=none;html=1;rounded=0;entryX=0.488;entryY=1.038;entryDx=0;entryDy=0;entryPerimeter=0;" parent="1" source="KoQxPKDXG5o8-Tq4nOLA-86" target="KoQxPKDXG5o8-Tq4nOLA-85" edge="1"><mxGeometry x="-0.4765" y="-21" width="50" height="50" relative="1" as="geometry"><mxPoint x="1020" y="724.87" as="sourcePoint"/><mxPoint x="1070" y="674.87" as="targetPoint"/><mxPoint as="offset"/></mxGeometry></mxCell><mxCell id="KoQxPKDXG5o8-Tq4nOLA-88" value="card7: Card" style="swimlane;fontStyle=5;childLayout=stackLayout;horizontal=1;startSize=26;fillColor=none;horizontalStack=0;resizeParent=1;resizeParentMax=0;resizeLast=0;collapsible=1;marginBottom=0;" parent="1" vertex="1"><mxGeometry x="860" y="594.87" width="80" height="52" as="geometry"/></mxCell><mxCell id="KoQxPKDXG5o8-Tq4nOLA-89" value="value = 5" style="text;strokeColor=none;fillColor=none;align=left;verticalAlign=top;spacingLeft=4;spacingRight=4;overflow=hidden;rotatable=0;points=[[0,0.5],[1,0.5]];portConstraint=eastwest;" parent="KoQxPKDXG5o8-Tq4nOLA-88" vertex="1"><mxGeometry y="26" width="80" height="26" as="geometry"/></mxCell><mxCell id="KoQxPKDXG5o8-Tq4nOLA-90" value="color" style="endArrow=none;html=1;rounded=0;entryX=0.488;entryY=1.038;entryDx=0;entryDy=0;entryPerimeter=0;" parent="1" source="KoQxPKDXG5o8-Tq4nOLA-91" target="KoQxPKDXG5o8-Tq4nOLA-89" edge="1"><mxGeometry x="-0.4765" y="-21" width="50" height="50" relative="1" as="geometry"><mxPoint x="1130" y="724.87" as="sourcePoint"/><mxPoint x="1180" y="674.87" as="targetPoint"/><mxPoint as="offset"/></mxGeometry></mxCell><mxCell id="KoQxPKDXG5o8-Tq4nOLA-91" value="yellow: CardColor" style="swimlane;fontStyle=5;childLayout=stackLayout;horizontal=1;startSize=26;fillColor=none;horizontalStack=0;resizeParent=1;resizeParentMax=0;resizeLast=0;collapsible=1;marginBottom=0;" parent="1" vertex="1"><mxGeometry x="850" y="684.87" width="100" height="30" as="geometry"/></mxCell><mxCell id="KoQxPKDXG5o8-Tq4nOLA-101" value="" style="endArrow=none;html=1;rounded=0;exitX=0.5;exitY=0;exitDx=0;exitDy=0;" parent="1" source="KoQxPKDXG5o8-Tq4nOLA-68" target="KoQxPKDXG5o8-Tq4nOLA-10" edge="1"><mxGeometry width="50" height="50" relative="1" as="geometry"><mxPoint x="250" y="604.8699999999999" as="sourcePoint"/><mxPoint x="539.4786058373477" y="512" as="targetPoint"/></mxGeometry></mxCell><mxCell id="KoQxPKDXG5o8-Tq4nOLA-102" value="" style="endArrow=none;html=1;rounded=0;exitX=0.5;exitY=0;exitDx=0;exitDy=0;" parent="1" source="KoQxPKDXG5o8-Tq4nOLA-72" target="KoQxPKDXG5o8-Tq4nOLA-10" edge="1"><mxGeometry width="50" height="50" relative="1" as="geometry"><mxPoint x="360" y="604.8699999999999" as="sourcePoint"/><mxPoint x="552.9857372248982" y="512" as="targetPoint"/></mxGeometry></mxCell><mxCell id="KoQxPKDXG5o8-Tq4nOLA-103" value="" style="endArrow=none;html=1;rounded=0;exitX=0.5;exitY=0;exitDx=0;exitDy=0;" parent="1" source="KoQxPKDXG5o8-Tq4nOLA-76" target="KoQxPKDXG5o8-Tq4nOLA-10" edge="1"><mxGeometry width="50" height="50" relative="1" as="geometry"><mxPoint x="470" y="604.8699999999999" as="sourcePoint"/><mxPoint x="566.492868612449" y="512" as="targetPoint"/></mxGeometry></mxCell><mxCell id="KoQxPKDXG5o8-Tq4nOLA-104" value="" style="endArrow=none;html=1;rounded=0;exitX=0.5;exitY=0;exitDx=0;exitDy=0;" parent="1" source="KoQxPKDXG5o8-Tq4nOLA-80" target="KoQxPKDXG5o8-Tq4nOLA-10" edge="1"><mxGeometry width="50" height="50" relative="1" as="geometry"><mxPoint x="580" y="604.8699999999999" as="sourcePoint"/><mxPoint x="580" y="512" as="targetPoint"/></mxGeometry></mxCell><mxCell id="KoQxPKDXG5o8-Tq4nOLA-105" value="" style="endArrow=none;html=1;rounded=0;exitX=0.5;exitY=0;exitDx=0;exitDy=0;" parent="1" source="KoQxPKDXG5o8-Tq4nOLA-84" target="KoQxPKDXG5o8-Tq4nOLA-10" edge="1"><mxGeometry width="50" height="50" relative="1" as="geometry"><mxPoint x="690" y="604.8699999999999" as="sourcePoint"/><mxPoint x="593.507131387551" y="512" as="targetPoint"/></mxGeometry></mxCell><mxCell id="KoQxPKDXG5o8-Tq4nOLA-106" value="" style="endArrow=none;html=1;rounded=0;exitX=0.5;exitY=0;exitDx=0;exitDy=0;" parent="1" source="KoQxPKDXG5o8-Tq4nOLA-88" target="KoQxPKDXG5o8-Tq4nOLA-10" edge="1"><mxGeometry width="50" height="50" relative="1" as="geometry"><mxPoint x="800" y="604.8699999999999" as="sourcePoint"/><mxPoint x="607.0142627751015" y="512" as="targetPoint"/></mxGeometry></mxCell><mxCell id="KoQxPKDXG5o8-Tq4nOLA-109" value="players, currentPlayer" style="curved=1;endArrow=none;html=1;rounded=0;strokeColor=default;endFill=0;" parent="1" source="KoQxPKDXG5o8-Tq4nOLA-5" target="KoQxPKDXG5o8-Tq4nOLA-1" edge="1"><mxGeometry x="0.829" y="10" width="50" height="50" relative="1" as="geometry"><mxPoint x="10" y="370" as="sourcePoint"/><mxPoint x="60" y="320" as="targetPoint"/><Array as="points"><mxPoint x="170" y="386"/><mxPoint x="140" y="180"/></Array><mxPoint as="offset"/></mxGeometry></mxCell><mxCell id="KoQxPKDXG5o8-Tq4nOLA-110" value="game" style="edgeLabel;html=1;align=center;verticalAlign=middle;resizable=0;points=[];" parent="KoQxPKDXG5o8-Tq4nOLA-109" vertex="1" connectable="0"><mxGeometry x="-0.959" y="1" relative="1" as="geometry"><mxPoint y="-10" as="offset"/></mxGeometry></mxCell><mxCell id="KoQxPKDXG5o8-Tq4nOLA-111" value="players" style="curved=1;endArrow=none;html=1;rounded=0;strokeColor=default;endFill=0;" parent="1" source="KoQxPKDXG5o8-Tq4nOLA-5" target="KoQxPKDXG5o8-Tq4nOLA-9" edge="1"><mxGeometry x="0.7242" y="11" width="50" height="50" relative="1" as="geometry"><mxPoint x="50" y="396" as="sourcePoint"/><mxPoint x="510" y="178.2790697674418" as="targetPoint"/><Array as="points"><mxPoint x="130" y="400"/><mxPoint x="200" y="490"/></Array><mxPoint as="offset"/></mxGeometry></mxCell><mxCell id="KoQxPKDXG5o8-Tq4nOLA-112" value="game" style="edgeLabel;html=1;align=center;verticalAlign=middle;resizable=0;points=[];" parent="KoQxPKDXG5o8-Tq4nOLA-111" vertex="1" connectable="0"><mxGeometry x="-0.959" y="1" relative="1" as="geometry"><mxPoint x="5" y="11" as="offset"/></mxGeometry></mxCell><mxCell id="KoQxPKDXG5o8-Tq4nOLA-117" value="color" style="endArrow=none;html=1;rounded=0;entryX=0.488;entryY=1.038;entryDx=0;entryDy=0;entryPerimeter=0;" parent="1" source="KoQxPKDXG5o8-Tq4nOLA-120" target="KoQxPKDXG5o8-Tq4nOLA-119" edge="1"><mxGeometry x="-0.4765" y="-21" width="50" height="50" relative="1" as="geometry"><mxPoint x="200" y="595" as="sourcePoint"/><mxPoint x="250" y="545" as="targetPoint"/><mxPoint as="offset"/></mxGeometry></mxCell><mxCell id="KoQxPKDXG5o8-Tq4nOLA-118" value="card1: Card" style="swimlane;fontStyle=5;childLayout=stackLayout;horizontal=1;startSize=26;fillColor=none;horizontalStack=0;resizeParent=1;resizeParentMax=0;resizeLast=0;collapsible=1;marginBottom=0;" parent="1" vertex="1"><mxGeometry x="-70" y="465" width="80" height="52" as="geometry"/></mxCell><mxCell id="KoQxPKDXG5o8-Tq4nOLA-119" value="value = 7" style="text;strokeColor=none;fillColor=none;align=left;verticalAlign=top;spacingLeft=4;spacingRight=4;overflow=hidden;rotatable=0;points=[[0,0.5],[1,0.5]];portConstraint=eastwest;" parent="KoQxPKDXG5o8-Tq4nOLA-118" vertex="1"><mxGeometry y="26" width="80" height="26" as="geometry"/></mxCell><mxCell id="KoQxPKDXG5o8-Tq4nOLA-120" value="red: CardColor" style="swimlane;fontStyle=5;childLayout=stackLayout;horizontal=1;startSize=26;fillColor=none;horizontalStack=0;resizeParent=1;resizeParentMax=0;resizeLast=0;collapsible=1;marginBottom=0;" parent="1" vertex="1"><mxGeometry x="-80" y="555" width="100" height="30" as="geometry"/></mxCell><mxCell id="KoQxPKDXG5o8-Tq4nOLA-121" value="" style="endArrow=none;html=1;rounded=0;strokeColor=default;" parent="1" source="KoQxPKDXG5o8-Tq4nOLA-118" edge="1"><mxGeometry width="50" height="50" relative="1" as="geometry"><mxPoint x="170" y="480" as="sourcePoint"/><mxPoint x="-30" y="400" as="targetPoint"/></mxGeometry></mxCell><mxCell id="KoQxPKDXG5o8-Tq4nOLA-122" value="discardPile" style="edgeLabel;html=1;align=center;verticalAlign=middle;resizable=0;points=[];" parent="KoQxPKDXG5o8-Tq4nOLA-121" vertex="1" connectable="0"><mxGeometry x="-0.5282" y="-2" relative="1" as="geometry"><mxPoint x="28" as="offset"/></mxGeometry></mxCell></root></mxGraphModel></diagram></mxfile>